# Blender v2.77 (sub 0) OBJ File: ''
# www.blender.org
mtllib cone.mtl
o Cube.002
v 1.189394 0.060606 0.000000
v -0.810606 -0.322077 -0.923880
v -0.810606 -0.134484 -0.980785
v -0.810606 0.060606 -1.000000
v -0.810606 -0.494964 -0.831470
v -0.810606 -0.646501 -0.707107
v -0.810606 -0.770864 -0.555570
v -0.810606 -0.863273 -0.382683
v -0.810606 -0.920179 -0.195090
v -0.810606 -0.939394 -0.000000
v -0.810606 -0.920179 0.195090
v -0.810606 -0.863273 0.382683
v -0.810606 -0.770864 0.555570
v -0.810606 -0.646501 0.707107
v -0.810606 -0.494964 0.831470
v -0.810606 -0.322077 0.923880
v -0.810606 -0.134484 0.980785
v -0.810606 0.060606 1.000000
v -0.810606 0.255697 0.980785
v -0.810606 0.443290 0.923879
v -0.810606 0.616177 0.831469
v -0.810606 0.767713 0.707106
v -0.810606 0.892076 0.555570
v -0.810606 0.984486 0.382683
v -0.810606 1.041392 0.195089
v -0.810606 1.060606 -0.000001
v -0.810606 1.041391 -0.195091
v -0.810606 0.984485 -0.382684
v -0.810606 0.892075 -0.555571
v -0.810606 0.767712 -0.707108
v -0.810606 0.616175 -0.831470
v -0.810606 0.443288 -0.923880
v -0.810606 0.255695 -0.980786
v -0.810606 -0.134484 -0.980785
v -0.810606 -0.134484 -0.980785
v -0.810606 -0.134484 -0.980785
v -0.810606 -0.134484 -0.980785
v -0.810606 -0.134484 -0.980785
v -0.810606 -0.322077 -0.923880
v -0.810606 -0.322077 -0.923880
v 1.189394 0.060606 0.000000
v 1.189394 0.060606 0.000000
v 1.189394 0.060606 0.000000
v 1.189394 0.060606 0.000000
v 1.189394 0.060606 0.000000
v 1.189394 0.060606 0.000000
v 1.189394 0.060606 0.000000
v 1.189394 0.060606 0.000000
v 1.189394 0.060606 0.000000
v 1.189394 0.060606 0.000000
v 1.189394 0.060606 0.000000
v 1.189394 0.060606 0.000000
v 1.189394 0.060606 0.000000
v 1.189394 0.060606 0.000000
v 1.189394 0.060606 0.000000
v 1.189394 0.060606 0.000000
v 1.189394 0.060606 0.000000
v 1.189394 0.060606 0.000000
v 1.189394 0.060606 0.000000
v 1.189394 0.060606 0.000000
v 1.189394 0.060606 0.000000
v 1.189394 0.060606 0.000000
v 1.189394 0.060606 0.000000
v 1.189394 0.060606 0.000000
v 1.189394 0.060606 0.000000
v 1.189394 0.060606 0.000000
v 1.189394 0.060606 0.000000
v 1.189394 0.060606 0.000000
v 1.189394 0.060606 0.000000
v 1.189394 0.060606 0.000000
v 1.189394 0.060606 0.000000
v -0.810606 0.060606 -1.000000
v -0.810606 0.060606 -1.000000
v -0.810606 -0.494964 -0.831470
v -0.810606 -0.494964 -0.831470
v -0.810606 -0.494964 -0.831470
v -0.810606 -0.494964 -0.831470
v -0.810606 -0.646501 -0.707107
v -0.810606 -0.646501 -0.707107
v -0.810606 -0.646501 -0.707107
v -0.810606 0.255695 -0.980786
v -0.810606 0.255695 -0.980786
v -0.810606 0.255695 -0.980786
v -0.810606 0.255695 -0.980786
v -0.810606 0.255695 -0.980786
v -0.810606 0.255695 -0.980786
v -0.810606 0.255695 -0.980786
v -0.810606 0.255695 -0.980786
v -0.810606 0.255695 -0.980786
v -0.810606 -0.770864 -0.555570
v -0.810606 -0.770864 -0.555570
v -0.810606 -0.770864 -0.555570
v -0.810606 0.443288 -0.923880
v -0.810606 0.443288 -0.923880
v -0.810606 -0.863273 -0.382683
v -0.810606 -0.863273 -0.382683
v -0.810606 0.616175 -0.831470
v -0.810606 0.616175 -0.831470
v -0.810606 0.616175 -0.831470
v -0.810606 0.616175 -0.831470
v -0.810606 -0.920179 -0.195090
v -0.810606 -0.920179 -0.195090
v -0.810606 -0.920179 -0.195090
v -0.810606 -0.920179 -0.195090
v -0.810606 -0.920179 -0.195090
v -0.810606 -0.920179 -0.195090
v -0.810606 -0.920179 -0.195090
v -0.810606 -0.920179 -0.195090
v -0.810606 -0.920179 -0.195090
v -0.810606 0.767712 -0.707108
v -0.810606 0.767712 -0.707108
v -0.810606 -0.939394 -0.000000
v -0.810606 -0.939394 -0.000000
v -0.810606 0.892075 -0.555571
v -0.810606 0.892075 -0.555571
v -0.810606 0.892075 -0.555571
v -0.810606 0.892075 -0.555571
v -0.810606 0.892075 -0.555571
v -0.810606 -0.920179 0.195090
v -0.810606 -0.920179 0.195090
v -0.810606 -0.920179 0.195090
v -0.810606 -0.920179 0.195090
v -0.810606 -0.920179 0.195090
v -0.810606 0.984485 -0.382684
v -0.810606 0.984485 -0.382684
v -0.810606 -0.863273 0.382683
v -0.810606 -0.863273 0.382683
v -0.810606 1.041391 -0.195091
v -0.810606 1.041391 -0.195091
v -0.810606 1.041391 -0.195091
v -0.810606 1.041391 -0.195091
v -0.810606 1.041391 -0.195091
v -0.810606 -0.770864 0.555570
v -0.810606 -0.770864 0.555570
v -0.810606 -0.770864 0.555570
v -0.810606 -0.770864 0.555570
v -0.810606 1.060606 -0.000001
v -0.810606 1.060606 -0.000001
v -0.810606 -0.646501 0.707107
v -0.810606 -0.646501 0.707107
v -0.810606 -0.646501 0.707107
v -0.810606 1.041392 0.195089
v -0.810606 1.041392 0.195089
v -0.810606 1.041392 0.195089
v -0.810606 1.041392 0.195089
v -0.810606 1.041392 0.195089
v -0.810606 1.041392 0.195089
v -0.810606 1.041392 0.195089
v -0.810606 -0.494964 0.831470
v -0.810606 -0.494964 0.831470
v -0.810606 -0.494964 0.831470
v -0.810606 0.984486 0.382683
v -0.810606 0.984486 0.382683
v -0.810606 -0.322077 0.923880
v -0.810606 -0.322077 0.923880
v -0.810606 0.892076 0.555570
v -0.810606 0.892076 0.555570
v -0.810606 0.892076 0.555570
v -0.810606 0.892076 0.555570
v -0.810606 -0.134484 0.980785
v -0.810606 -0.134484 0.980785
v -0.810606 -0.134484 0.980785
v -0.810606 -0.134484 0.980785
v -0.810606 -0.134484 0.980785
v -0.810606 -0.134484 0.980785
v -0.810606 -0.134484 0.980785
v -0.810606 -0.134484 0.980785
v -0.810606 -0.134484 0.980785
v -0.810606 -0.134484 0.980785
v -0.810606 0.767713 0.707106
v -0.810606 0.767713 0.707106
v -0.810606 0.060606 1.000000
v -0.810606 0.060606 1.000000
v -0.810606 0.060606 1.000000
v -0.810606 0.616177 0.831469
v -0.810606 0.616177 0.831469
v -0.810606 0.616177 0.831469
v -0.810606 0.616177 0.831469
v -0.810606 0.616177 0.831469
v -0.810606 0.616177 0.831469
v -0.810606 0.616177 0.831469
v -0.810606 0.255697 0.980785
v -0.810606 0.255697 0.980785
v -0.810606 0.255697 0.980785
v -0.810606 0.443290 0.923879
v -0.810606 0.443290 0.923879
vt 0.0185 0.5015
vt 0.6159 0.3658
vt 0.0327 0.5533
vt 0.0089 0.4487
vt 0.6159 0.3658
vt 0.0185 0.5015
vt 0.0327 0.5533
vt 0.6159 0.3658
vt 0.0514 0.6037
vt 0.0514 0.6037
vt 0.6159 0.3658
vt 0.0744 0.6522
vt 0.0744 0.6522
vt 0.6159 0.3658
vt 0.1015 0.6985
vt 0.1015 0.6985
vt 0.6159 0.3658
vt 0.1327 0.7423
vt 0.1327 0.7423
vt 0.6159 0.3658
vt 0.1675 0.7832
vt 0.1675 0.7832
vt 0.6159 0.3658
vt 0.2058 0.8209
vt 0.2058 0.8209
vt 0.6159 0.3658
vt 0.2472 0.8550
vt 0.2472 0.8550
vt 0.6159 0.3658
vt 0.2915 0.8854
vt 0.2915 0.8854
vt 0.6159 0.3658
vt 0.3383 0.9119
vt 0.3383 0.9119
vt 0.6159 0.3658
vt 0.3871 0.9341
vt 0.3871 0.9341
vt 0.6159 0.3658
vt 0.4378 0.9519
vt 0.4378 0.9519
vt 0.6159 0.3658
vt 0.4898 0.9653
vt 0.4898 0.9653
vt 0.6159 0.3658
vt 0.5428 0.9740
vt 0.5428 0.9740
vt 0.6159 0.3658
vt 0.5964 0.9781
vt 0.5964 0.9781
vt 0.6159 0.3658
vt 0.6501 0.9775
vt 0.6501 0.9775
vt 0.6159 0.3658
vt 0.7035 0.9721
vt 0.7035 0.9721
vt 0.6159 0.3658
vt 0.7563 0.9621
vt 0.7563 0.9621
vt 0.6159 0.3658
vt 0.8080 0.9475
vt 0.8080 0.9475
vt 0.6159 0.3658
vt 0.8582 0.9285
vt 0.8582 0.9285
vt 0.6159 0.3658
vt 0.9065 0.9051
vt 0.9065 0.9051
vt 0.6159 0.3658
vt 0.9527 0.8776
vt 0.9527 0.8776
vt 0.6159 0.3658
vt 0.9962 0.8461
vt 0.0988 0.0373
vt 0.6159 0.3658
vt 0.0720 0.0839
vt 0.0720 0.0839
vt 0.6159 0.3658
vt 0.0494 0.1326
vt 0.0494 0.1326
vt 0.6159 0.3658
vt 0.0312 0.1831
vt 0.0312 0.1831
vt 0.6159 0.3658
vt 0.0174 0.2350
vt 0.0174 0.2350
vt 0.6159 0.3658
vt 0.0083 0.2880
vt 0.0083 0.2880
vt 0.6159 0.3658
vt 0.0038 0.3415
vt 0.6073 0.2360
vt 0.7626 0.0080
vt 0.9906 0.1634
vt 0.0038 0.3415
vt 0.6159 0.3658
vt 0.0040 0.3952
vt 0.0040 0.3952
vt 0.6159 0.3658
vt 0.0089 0.4487
vt 0.9906 0.1634
vt 0.9940 0.2015
vt 0.9899 0.2395
vt 0.9899 0.2395
vt 0.9785 0.2760
vt 0.9601 0.3095
vt 0.9601 0.3095
vt 0.9356 0.3389
vt 0.8352 0.3914
vt 0.9058 0.3629
vt 0.8719 0.3806
vt 0.8352 0.3914
vt 0.8352 0.3914
vt 0.7971 0.3948
vt 0.7591 0.3907
vt 0.7591 0.3907
vt 0.7226 0.3792
vt 0.6891 0.3609
vt 0.6891 0.3609
vt 0.6597 0.3364
vt 0.6073 0.2360
vt 0.6357 0.3066
vt 0.6180 0.2727
vt 0.6073 0.2360
vt 0.6073 0.2360
vt 0.6039 0.1979
vt 0.6377 0.0899
vt 0.6080 0.1599
vt 0.6194 0.1234
vt 0.6377 0.0899
vt 0.6377 0.0899
vt 0.6622 0.0605
vt 0.6920 0.0365
vt 0.6920 0.0365
vt 0.7259 0.0188
vt 0.7626 0.0080
vt 0.7626 0.0080
vt 0.8007 0.0046
vt 0.8387 0.0087
vt 0.8387 0.0087
vt 0.8752 0.0202
vt 0.9088 0.0385
vt 0.9088 0.0385
vt 0.9381 0.0630
vt 0.9621 0.0928
vt 0.9621 0.0928
vt 0.9798 0.1267
vt 0.9906 0.1634
vt 0.9906 0.1634
vt 0.9899 0.2395
vt 0.8352 0.3914
vt 0.9356 0.3389
vt 0.9058 0.3629
vt 0.8352 0.3914
vt 0.8352 0.3914
vt 0.7591 0.3907
vt 0.6073 0.2360
vt 0.6597 0.3364
vt 0.6357 0.3066
vt 0.6073 0.2360
vt 0.6039 0.1979
vt 0.6080 0.1599
vt 0.6377 0.0899
vt 0.6377 0.0899
vt 0.6920 0.0365
vt 0.7626 0.0080
vt 0.7626 0.0080
vt 0.8387 0.0087
vt 0.9906 0.1634
vt 0.9088 0.0385
vt 0.9621 0.0928
vt 0.9906 0.1634
vt 0.9899 0.2395
vt 0.9601 0.3095
vt 0.8352 0.3914
vt 0.7591 0.3907
vt 0.6891 0.3609
vt 0.6073 0.2360
vt 0.6073 0.2360
vt 0.6377 0.0899
vt 0.7626 0.0080
vt 0.8387 0.0087
vt 0.9088 0.0385
vt 0.9906 0.1634
vt 0.9906 0.1634
vt 0.8352 0.3914
vt 0.6073 0.2360
vn 0.4455 -0.2599 -0.8567
vn 0.4455 -0.0878 -0.8910
vn 0.4455 -0.4220 -0.7896
vn 0.4455 -0.5680 -0.6921
vn 0.4455 -0.6921 -0.5680
vn 0.4455 -0.7896 -0.4220
vn 0.4455 -0.8567 -0.2599
vn 0.4455 -0.8910 -0.0878
vn 0.4455 -0.8910 0.0878
vn 0.4455 -0.8567 0.2599
vn 0.4455 -0.7896 0.4220
vn 0.4455 -0.6921 0.5680
vn 0.4455 -0.5680 0.6921
vn 0.4455 -0.4220 0.7896
vn 0.4455 -0.2599 0.8567
vn 0.4455 -0.0878 0.8910
vn 0.4455 0.0878 0.8910
vn 0.4455 0.2599 0.8567
vn 0.4455 0.4220 0.7896
vn 0.4455 0.5680 0.6921
vn 0.4455 0.6921 0.5680
vn 0.4455 0.7896 0.4220
vn 0.4455 0.8567 0.2599
vn 0.4455 0.8910 0.0878
vn 0.4455 0.8910 -0.0878
vn 0.4455 0.8567 -0.2599
vn 0.4455 0.7896 -0.4220
vn 0.4455 0.6921 -0.5680
vn 0.4455 0.5680 -0.6921
vn 0.4455 0.4220 -0.7896
vn -1.0000 0.0000 -0.0000
vn 0.4455 0.2599 -0.8567
vn 0.4455 0.0878 -0.8910
usemtl Material
s off
f 34/1/1 41/2/1 39/3/1
f 72/4/2 42/5/2 35/6/2
f 40/7/3 43/8/3 74/9/3
f 75/10/4 71/11/4 78/12/4
f 79/13/5 70/14/5 90/15/5
f 91/16/6 69/17/6 95/18/6
f 96/19/7 68/20/7 101/21/7
f 102/22/8 67/23/8 112/24/8
f 113/25/9 66/26/9 119/27/9
f 120/28/10 65/29/10 126/30/10
f 127/31/11 64/32/11 133/33/11
f 134/34/12 63/35/12 139/36/12
f 140/37/13 62/38/13 149/39/13
f 150/40/14 61/41/14 154/42/14
f 155/43/15 60/44/15 160/45/15
f 161/46/16 59/47/16 172/48/16
f 173/49/17 58/50/17 182/51/17
f 183/52/18 57/53/18 185/54/18
f 186/55/19 56/56/19 175/57/19
f 176/58/20 55/59/20 170/60/20
f 171/61/21 54/62/21 156/63/21
f 157/64/22 53/65/22 152/66/22
f 153/67/23 52/68/23 142/69/23
f 143/70/24 51/71/24 137/72/24
f 138/73/25 50/74/25 128/75/25
f 129/76/26 49/77/26 124/78/26
f 125/79/27 48/80/27 114/81/27
f 115/82/28 47/83/28 110/84/28
f 111/85/29 46/86/29 97/87/29
f 98/88/30 45/89/30 93/90/30
f 168/91/31 25/92/31 89/93/31
f 94/94/32 44/95/32 81/96/32
f 82/97/33 1/98/33 73/99/33
f 83/100/31 4/101/31 36/102/31
f 37/103/31 2/104/31 76/105/31
f 77/106/31 80/107/31 103/108/31
f 92/109/31 8/110/31 104/111/31
f 105/112/31 10/113/31 121/114/31
f 122/115/31 12/116/31 135/117/31
f 136/118/31 141/119/31 162/120/31
f 151/121/31 16/122/31 163/123/31
f 164/124/31 174/125/31 177/126/31
f 184/127/31 20/128/31 178/129/31
f 179/130/31 22/131/31 158/132/31
f 159/133/31 24/134/31 144/135/31
f 145/136/31 26/137/31 130/138/31
f 131/139/31 28/140/31 116/141/31
f 117/142/31 30/143/31 99/144/31
f 100/145/31 32/146/31 84/147/31
f 85/148/31 38/149/31 106/150/31
f 6/151/31 7/152/31 109/153/31
f 107/154/31 123/155/31 165/156/31
f 14/157/31 15/158/31 17/159/31
f 18/160/31 19/161/31 21/162/31
f 180/163/31 23/164/31 146/165/31
f 147/166/31 132/167/31 86/168/31
f 118/169/31 31/170/31 87/171/31
f 3/172/31 5/173/31 108/174/31
f 11/175/31 13/176/31 169/177/31
f 166/178/31 181/179/31 148/180/31
f 27/181/31 29/182/31 33/183/31
f 88/184/31 9/185/31 167/186/31
